<svg width="40" height="42" viewBox="0 0 40 42" fill="none" xmlns="http://www.w3.org/2000/svg">
<path d="M22.6962 37.3923C21.9735 38.1028 21.0073 38.5 20.0018 38.5C18.9963 38.5 18.0303 38.1028 17.3075 37.3923C10.6884 30.8455 1.81793 23.5321 6.14378 12.9144C8.48272 7.17353 14.0972 3.5 20.0018 3.5C25.9065 3.5 31.521 7.17353 33.86 12.9144C38.1803 23.5188 29.3317 30.8681 22.6962 37.3923Z" stroke="#050606" stroke-width="1.5"/>
<path d="M25.8337 19.25C25.8337 22.6327 23.222 25.375 20.0003 25.375C16.7787 25.375 14.167 22.6327 14.167 19.25C14.167 15.8672 16.7787 13.125 20.0003 13.125C23.222 13.125 25.8337 15.8672 25.8337 19.25Z" stroke="#050606" stroke-width="1.5"/>
</svg>
