<svg width="169" height="35" viewBox="0 0 169 35" fill="none" xmlns="http://www.w3.org/2000/svg">
<path d="M6.16 17.68H23.24V13.84H6.16V9.2H2.32V30H25.84V26.2H6.16V17.68ZM2.32 3.44V7.28H25.84V3.44H2.32ZM26.0147 3.36H20.9347L31.8947 23.16L34.4147 18.6L26.0147 3.36ZM45.4147 3.36L35.6947 20.88L33.1747 25.44L35.6947 30L38.2147 25.44L50.4547 3.36H45.4147Z" fill="#47AF71"/>
<path d="M40.76 30H45.84L54.28 14.8L51.76 10.2L40.76 30ZM58.08 7.92L55.52 3.36L53 7.92L55.52 12.48L65.24 30H70.28L58.08 7.92ZM85.5697 16.28L85.0897 15.56C85.1297 15.52 85.1697 15.52 85.1697 15.48C85.2097 15.48 85.2097 15.48 85.2097 15.48C85.2897 15.44 85.3697 15.4 85.4097 15.32H85.4497C85.4897 15.28 85.5697 15.24 85.6497 15.2C85.8097 15.08 85.9697 14.96 86.0897 14.84C86.1297 14.84 86.1697 14.8 86.2097 14.76C86.2897 14.72 86.3297 14.68 86.3697 14.64C86.4497 14.56 86.5297 14.48 86.6097 14.44L86.6497 14.4C86.6897 14.36 86.7697 14.32 86.8097 14.24C87.0097 14.12 87.1697 13.96 87.3297 13.76C89.1297 12 90.4097 9.76 90.9697 7.2C91.1697 6.28 91.2897 5.32 91.2897 4.32C91.2897 4 91.2897 3.68 91.2497 3.36H69.2097V30H73.0497V17.6H77.9697C78.0897 17.6 78.1697 17.6 78.2497 17.6C78.2897 17.6 78.3697 17.6 78.4097 17.6C78.4897 17.6 78.5697 17.6 78.6097 17.6C78.6497 17.6 78.6497 17.6 78.6897 17.6C78.7697 17.6 78.8897 17.6 79.0097 17.56C79.1297 17.56 79.2097 17.56 79.3297 17.56C79.4097 17.52 79.5297 17.52 79.6097 17.52C79.6497 17.52 79.6897 17.52 79.7297 17.48C79.8097 17.48 79.8897 17.48 79.9697 17.48C80.0097 17.44 80.0497 17.44 80.0897 17.44C80.1297 17.44 80.2097 17.44 80.2897 17.4C80.4897 17.36 80.7297 17.32 80.9697 17.28C81.0497 17.24 81.1697 17.24 81.2497 17.2C81.2897 17.2 81.2897 17.2 81.3297 17.2C81.4097 17.16 81.4497 17.16 81.5297 17.12C81.5697 17.12 81.5697 17.12 81.5697 17.12L81.8097 17.48L89.4497 30H93.9297L85.5697 16.28ZM81.7297 13C80.5697 13.52 79.2897 13.76 77.9697 13.76H73.0497V7.2H87.0097C86.5297 8.64 85.7297 9.96 84.6497 11.04C83.7697 11.88 82.8097 12.56 81.7297 13ZM96.2569 17.68H113.337V13.84H96.2569V9.2H92.4169V30H115.937V26.2H96.2569V17.68ZM92.4169 3.44V7.28H115.937V3.44H92.4169ZM116.189 30H120.029V15.36L116.189 11.52V30ZM133.469 3.44V20.64L116.189 3.4V8.8L120.029 12.64L133.469 26.08L137.269 29.88V3.44H133.469ZM136.633 30H141.713L150.153 14.8L147.633 10.2L136.633 30ZM153.953 7.92L151.393 3.36L148.873 7.92L151.393 12.48L161.113 30H166.153L153.953 7.92Z" fill="black"/>
</svg>
